<svg xmlns="http://www.w3.org/2000/svg" viewBox="0 0 56 64" stroke="#000" stroke-linecap="round" stroke-linejoin="round" fill="#fff" fill-rule="evenodd">
  <path d="M22.2384 35.66v12.46c0 2.593.44 4.847 1.323 6.762s2.044 3.506 3.485 4.773 3.06 2.225 4.853 2.873 3.604.972 5.426.972 3.632-.324 5.426-.972 3.412-1.606 4.853-2.873 2.603-2.858 3.485-4.773 1.323-4.17 1.323-6.762V27.36l-16.126-.025-.02 8.325h7.147v12.46c0 2.18-.603 3.786-1.8 4.818s-2.632 1.547-4.28 1.547-3.073-.516-4.28-1.547-1.8-2.637-1.8-4.818V14.88c0-2.18.603-3.786 1.8-4.818s2.632-1.547 4.28-1.547 3.073.516 4.28 1.547 1.8 2.638 1.8 4.818v3.182h9V14.88c0-2.534-.44-4.773-1.323-6.718s-2.044-3.55-3.485-4.818-3.06-2.224-4.852-2.874-3.605-.97-5.428-.97-3.632.324-5.426.972-3.412 1.606-4.853 2.873-2.603 2.873-3.485 4.818-1.323 4.184-1.323 6.718v12.46h-9.207v-9.28h2.824l-7.02-9.92-7.02 9.92h2.92V31.5c0 2.298 1.857 4.16 4.15 4.16h13.355z" stroke="none" fill="#2da6b0"/>
</svg>
